<svg width="24" height="27" viewBox="0 0 24 27" fill="none" xmlns="http://www.w3.org/2000/svg">
<path d="M2.66667 27H21.3333C22.804 27 24 25.7891 24 24.3V9.45C24 9.09196 23.8595 8.74858 23.6095 8.49541C23.3594 8.24223 23.0203 8.1 22.6667 8.1H18.6667V6.75C18.6667 3.02805 15.676 0 12 0C8.324 0 5.33333 3.02805 5.33333 6.75V8.1H1.33333C0.979711 8.1 0.640573 8.24223 0.390524 8.49541C0.140476 8.74858 0 9.09196 0 9.45V24.3C0 25.7891 1.196 27 2.66667 27ZM8 6.75C8 4.5171 9.79467 2.7 12 2.7C14.2053 2.7 16 4.5171 16 6.75V8.1H8V6.75ZM2.66667 10.8H5.33333V13.5H8V10.8H16V13.5H18.6667V10.8H21.3333L21.336 24.3H2.66667V10.8Z" fill="#DDC190"/>
</svg>
