<svg width="33" height="30" viewBox="0 0 33 30" fill="none" xmlns="http://www.w3.org/2000/svg">
<path d="M14.5669 26.9343L14.5655 26.933C10.3615 23.1208 6.9525 20.0234 4.58286 17.1243C2.22421 14.2387 1 11.6719 1 8.9375C1 4.46973 4.48359 1 8.9375 1C11.4627 1 13.9029 2.18071 15.4912 4.03128L16.25 4.91543L17.0088 4.03128C18.5971 2.18071 21.0373 1 23.5625 1C28.0164 1 31.5 4.46973 31.5 8.9375C31.5 11.6719 30.2758 14.2387 27.9171 17.1243C25.5475 20.0234 22.1385 23.1208 17.9345 26.933L17.9331 26.9343L16.25 28.4664L14.5669 26.9343Z" stroke="#EEEEEE" stroke-width="2"/>
</svg>
